<svg width="181" height="720" xmlns="http://www.w3.org/2000/svg" xmlns:xlink="http://www.w3.org/1999/xlink" xml:space="preserve" overflow="hidden"><defs><clipPath id="clip0"><rect x="268" y="-7" width="181" height="720"/></clipPath></defs><g clip-path="url(#clip0)" transform="translate(-268 7)"><path d="M446.644 219.246C438.324 219.022 405.437 218.516 373.562 218.178 268.829 217.054 224.924 216.154 202.1 214.749 178.657 213.287 150.887 210.926 135.764 209.127 133.291 208.847 129.13 208.34 126.488 208.059 101.865 205.136 78.6476 201.82 56.7792 198.109 52.2818 197.322 46.885 196.366 44.6926 195.916 42.5562 195.522 36.5972 194.398 31.4815 193.387 19.8446 191.194 16.1342 190.407 7.13956 188.215L-0.056217 186.472 2.36112 185.066C8.88229 181.3 26.0847 173.879 36.5411 170.338 60.5457 162.186 87.5299 156.227 119.461 151.842 137.788 149.368 139.98 149.144 156.846 147.569 218.178 142.004 281.873 140.037 407.292 139.812L477.564 139.699 477.957 146.164C478.519 154.765 480.037 170.112 480.43 171.125 480.599 171.63 481.836 172.137 483.354 172.305 487.964 172.924 493.697 174.667 500.051 177.365 515.679 183.998 523.493 185.628 533.612 184.448 536.816 184.054 541.538 183.099 544.125 182.368 559.416 177.927 592.416 175.228 615.408 176.465 635.421 177.59 645.427 179.164 662.125 184.054 669.826 186.303 672.075 186.472 677.359 185.235 682.756 183.942 688.208 180.794 693.212 176.072L697.71 171.855 700.97 172.193C709.459 173.092 717.273 178.545 719.016 184.842 719.297 185.966 719.578 191.082 719.578 196.085 719.578 206.429 719.297 207.553 715.642 211.32 713.001 214.018 707.66 217.223 703.107 218.741 699.34 220.033 697.822 220.033 670.107 218.684 592.864 214.918 589.548 214.805 557.111 216.435 550.758 216.717 540.133 217.279 533.499 217.56 526.866 217.897 516.972 218.403 511.575 218.741 497.689 219.527 464.522 219.809 446.644 219.246Z" fill="#FF4500" transform="matrix(1.20697e-16 1 1.96682 -6.10985e-17 5.36 -6.7891)"/></g></svg>