<svg width="53" height="52" xmlns="http://www.w3.org/2000/svg" xmlns:xlink="http://www.w3.org/1999/xlink" xml:space="preserve" overflow="hidden"><defs><clipPath id="clip0"><rect x="613" y="334" width="53" height="52"/></clipPath></defs><g clip-path="url(#clip0)" transform="translate(-613 -334)"><path d="M645.127 355.812 637.783 355.812C637.535 355.366 637.138 354.969 636.691 354.721L636.691 342.414C636.691 341.57 636.046 340.925 635.202 340.925 634.359 340.925 633.713 341.57 633.713 342.414L633.713 354.721C632.82 355.217 632.225 356.209 632.225 357.301 632.225 358.939 633.565 360.279 635.202 360.279 636.294 360.279 637.286 359.683 637.783 358.79L645.127 358.79C645.971 358.79 646.616 358.145 646.616 357.301 646.616 356.458 645.971 355.812 645.127 355.812Z" fill="#FFFFFF" transform="matrix(1 0 0 1.00757 4.59572 -0.00475083)"/><path d="M660.263 357.301C660.263 343.505 648.998 332.241 635.202 332.241 621.406 332.241 610.141 343.505 610.141 357.301 610.141 371.097 621.406 382.362 635.202 382.362 648.998 382.362 660.263 371.097 660.263 357.301ZM635.202 379.384C623.044 379.384 613.119 369.459 613.119 357.301 613.119 345.143 623.044 335.218 635.202 335.218 647.36 335.218 657.285 345.143 657.285 357.301 657.285 369.459 647.36 379.384 635.202 379.384Z" fill="#FFFFFF" transform="matrix(1 0 0 1.00757 4.59572 -0.00475083)"/></g></svg>