<svg width="720" height="720" xmlns="http://www.w3.org/2000/svg" xmlns:xlink="http://www.w3.org/1999/xlink" xml:space="preserve" overflow="hidden"><defs><clipPath id="clip0"><rect x="280" y="0" width="720" height="720"/></clipPath></defs><g clip-path="url(#clip0)" transform="translate(-280 0)"><path d="M411.429 257.143C411.429 285.536 401.384 309.777 381.295 329.866 361.205 349.955 336.964 360 308.571 360 280.178 360 255.937 349.955 235.848 329.866 215.759 309.777 205.714 285.536 205.714 257.143 205.714 228.75 215.759 204.509 235.848 184.42 255.937 164.33 280.178 154.286 308.571 154.286 336.964 154.286 361.205 164.33 381.295 184.42 401.384 204.509 411.429 228.75 411.429 257.143ZM617.143 300.938 617.143 211.741C617.143 208.527 616.07 205.446 613.929 202.5 611.787 199.554 609.107 197.812 605.893 197.277L531.562 186.027C526.472 171.562 521.249 159.375 515.893 149.464 525.266 136.072 539.598 117.589 558.884 94.0179 561.564 90.8036 562.902 87.4555 562.902 83.9732 562.902 80.4909 561.696 77.4109 559.286 74.7321 552.054 64.8213 538.795 50.357 519.509 31.3393 500.223 12.3214 487.635 2.8125 481.741 2.8125 478.527 2.8125 475.043 4.01786 471.295 6.42857L415.848 49.8214C404.064 43.6608 391.875 38.5714 379.286 34.5536 375-1.875 371.116-26.7857 367.634-40.1786 365.759-47.6787 360.937-51.4286 353.17-51.4286L263.973-51.4286C260.223-51.4286 256.942-50.2903 254.129-48.0134 251.317-45.7365 249.777-42.8573 249.509-39.375L238.259 34.5536C225.134 38.8393 213.08 43.7946 202.098 49.4196L145.446 6.42857C142.768 4.01786 139.42 2.8125 135.402 2.8125 131.652 2.8125 128.303 4.28573 125.357 7.23214 91.6071 37.7679 69.5089 60.2679 59.0625 74.7321 57.1874 77.4109 56.25 80.4909 56.25 83.9732 56.25 87.1875 57.3216 90.268 59.4643 93.2143 63.4821 98.8393 70.3125 107.746 79.9554 119.933 89.5982 132.12 96.8304 141.562 101.652 148.259 94.4196 161.652 88.9284 174.911 85.1786 188.036L11.6518 198.884C8.16963 199.42 5.35713 201.094 3.21429 203.906 1.07143 206.719 0 209.866 0 213.348L0 302.545C0 305.759 1.07143 308.839 3.21429 311.786 5.35713 314.732 7.9018 316.473 10.8482 317.009L85.5804 328.259C89.3302 340.58 94.5534 352.902 101.25 365.223 90.5356 380.491 76.2055 398.973 58.2589 420.67 55.5802 423.884 54.2411 427.098 54.2411 430.312 54.2411 432.992 55.4464 436.07 57.8571 439.554 64.8213 449.196 78.0135 463.592 97.433 482.746 116.853 501.899 129.509 511.473 135.402 511.473 138.884 511.473 142.366 510.135 145.848 507.455L201.295 464.464C213.08 470.624 225.268 475.714 237.857 479.732 242.143 516.162 246.027 541.073 249.509 554.464 251.384 561.966 256.205 565.714 263.973 565.714L353.17 565.714C356.919 565.714 360.201 564.577 363.013 562.299 365.826 560.021 367.366 557.144 367.634 553.661L378.884 479.732C392.009 475.445 404.064 470.491 415.045 464.866L472.098 507.857C474.509 510.268 477.723 511.473 481.741 511.473 485.225 511.473 488.571 510.135 491.786 507.455 526.339 475.582 548.438 452.812 558.08 439.152 559.957 437.01 560.893 434.061 560.893 430.312 560.893 427.098 559.82 424.016 557.679 421.071 553.661 415.446 546.83 406.539 537.188 394.353 527.545 382.165 520.312 372.723 515.491 366.027 522.454 352.634 527.946 339.509 531.964 326.652L605.491 315.402C608.975 314.866 611.787 313.192 613.929 310.379 616.07 307.567 617.143 304.42 617.143 300.938Z" fill="#FFFFFF" transform="matrix(1 0 0 -1 328.814 619.321)"/></g></svg>