<svg width="453" height="432" xmlns="http://www.w3.org/2000/svg" xmlns:xlink="http://www.w3.org/1999/xlink" xml:space="preserve" overflow="hidden"><defs><clipPath id="clip0"><rect x="766" y="196" width="453" height="432"/></clipPath></defs><g clip-path="url(#clip0)" transform="translate(-766 -196)"><path d="M590.511 513.84 638.648 464.144C642.622 460.042 648.088 457.726 653.799 457.726L829.705 457.726C841.355 457.726 850.798 448.284 850.798 436.634L850.798 208.825C850.798 197.175 841.355 187.731 829.705 187.731L506.273 187.731C494.623 187.731 485.18 197.175 485.18 208.825L485.18 436.634C485.18 448.284 494.623 457.726 506.273 457.726L556.968 457.726C566.109 457.726 574.209 463.614 577.03 472.308L590.511 513.841ZM541.637 499.914 506.273 499.914C471.324 499.914 442.993 471.582 442.993 436.634L442.993 208.825C442.993 173.876 471.324 145.545 506.273 145.545L829.705 145.545C864.654 145.545 892.985 173.876 892.985 208.825L892.985 436.634C892.985 471.582 864.654 499.914 829.705 499.914L662.735 499.914 596.422 568.375C585.359 579.795 566.117 575.334 561.208 560.211L541.637 499.914Z" fill="#FFFFFF" transform="matrix(1.00046 0 0 1 323.461 51.7792)"/></g></svg>