<svg width="720" height="720" xmlns="http://www.w3.org/2000/svg" xmlns:xlink="http://www.w3.org/1999/xlink" xml:space="preserve" overflow="hidden"><defs><clipPath id="clip0"><rect x="280" y="0" width="720" height="720"/></clipPath></defs><g clip-path="url(#clip0)" transform="translate(-280 0)"><path d="M547.978 236.627 547.978 112.086C547.978 81.2108 537.016 54.8108 515.092 32.8865 493.168 10.9622 466.768 0 435.892 0L112.086 0C81.2108 0 54.8108 10.9622 32.8865 32.8865 10.9622 54.8108 0 81.2108 0 112.086L0 435.892C0 466.768 10.9622 493.168 32.8865 515.092 54.8108 537.016 81.2108 547.978 112.086 547.978L386.076 547.978C389.708 547.978 392.692 546.811 395.027 544.476 397.362 542.141 398.53 539.157 398.53 535.524L398.53 510.616C398.53 506.984 397.362 504 395.027 501.665 392.692 499.33 389.708 498.162 386.076 498.162L112.086 498.162C94.9622 498.162 80.3027 492.065 68.1081 479.87 55.9135 467.676 49.8162 453.016 49.8162 435.892L49.8162 112.086C49.8162 94.9622 55.9135 80.3027 68.1081 68.1081 80.3027 55.9135 94.9622 49.8162 112.086 49.8162L435.892 49.8162C453.016 49.8162 467.676 55.9135 479.87 68.1081 492.065 80.3027 498.162 94.9622 498.162 112.086L498.162 236.627C498.162 240.259 499.33 243.243 501.665 245.578 504 247.914 506.984 249.081 510.616 249.081L535.524 249.081C539.157 249.081 542.141 247.914 544.476 245.578 546.811 243.243 547.978 240.259 547.978 236.627ZM697.427 572.886 697.427 373.622C697.427 366.876 694.962 361.038 690.032 356.108 685.103 351.178 679.265 348.714 672.519 348.714 665.773 348.714 659.935 351.178 655.005 356.108L586.508 424.605 332.757 170.854C330.162 168.259 327.178 166.962 323.805 166.962 320.432 166.962 317.449 168.259 314.854 170.854L270.486 215.222C267.892 217.816 266.595 220.8 266.595 224.173 266.595 227.546 267.892 230.53 270.486 233.124L524.238 486.876 455.741 555.373C450.811 560.303 448.346 566.141 448.346 572.886 448.346 579.632 450.811 585.47 455.741 590.4 460.67 595.33 466.508 597.795 473.254 597.795L672.519 597.795C679.265 597.795 685.103 595.33 690.032 590.4 694.962 585.47 697.427 579.632 697.427 572.886Z" fill="#FFFFFF" transform="matrix(1 0 0 -1 291.821 654.986)"/></g></svg>