<svg width="395" height="612" xmlns="http://www.w3.org/2000/svg" xmlns:xlink="http://www.w3.org/1999/xlink" xml:space="preserve" overflow="hidden"><defs><clipPath id="clip0"><rect x="443" y="54" width="395" height="612"/></clipPath></defs><g clip-path="url(#clip0)" transform="translate(-443 -54)"><path d="M216.02 611.196C221.998 614.374 228.304 607.492 224.644 601.796 204.778 570.877 185.966 518.849 215.938 451.844 265.92 340.107 296.335 282.234 296.335 282.234 296.335 282.234 312.512 349.771 356.364 409.82 398.569 467.613 421.67 540.298 384.428 600.849 380.933 606.532 387.096 613.237 393.035 610.198 439.135 586.616 490.841 539.313 496.675 445.181 498.826 416.417 495.6 376.147 479.469 325.33 458.728 260.923 433.23 230.87 418.477 217.964 414.064 214.103 407.201 217.525 407.563 223.377 411.862 292.871 385.718 310.507 370.837 270.763 364.894 254.889 361.428 227.433 361.428 193.997 361.428 138.332 345.278 81.0301 309.673 34.4661 300.413 22.357 289.579 11.042 277.149 1.393 272.649-2.101 266.126 1.411 266.538 7.09301 269.272 44.8291 266.795 152.978 171.914 282.182 85.8851 402.034 119.221 494.079 131.05 519.009 153.666 566.768 185.212 594.815 216.02 611.196Z" fill="#FFFFFF" transform="matrix(1.00001 0 0 1 333.996 54)"/></g></svg>