<svg width="1204" height="207" xmlns="http://www.w3.org/2000/svg" xmlns:xlink="http://www.w3.org/1999/xlink" xml:space="preserve" overflow="hidden"><defs><clipPath id="clip0"><rect x="0" y="237" width="1204" height="207"/></clipPath><clipPath id="clip1"><rect x="0" y="237" width="464" height="210"/></clipPath><clipPath id="clip2"><rect x="0" y="237" width="464" height="210"/></clipPath><clipPath id="clip3"><rect x="0" y="237" width="464" height="210"/></clipPath><clipPath id="clip4"><rect x="0" y="237" width="464" height="210"/></clipPath></defs><g clip-path="url(#clip0)" transform="matrix(1 0 0 1 0 -237)"><g clip-path="url(#clip1)"><g clip-path="url(#clip2)"><g clip-path="url(#clip3)"><g clip-path="url(#clip4)"><path d="M365.341 290.308C364.97 289.954 355.529 289.24 344.359 288.721 314.385 287.327 298.483 285.298 282.679 280.854 274.594 278.579 274.306 278.31 270.103 269.003 267.737 263.765 264.852 255.2 263.691 249.97 262.527 244.74 260.516 235.724 259.22 229.931 254.885 210.583 252.712 198.389 252.652 193.062 252.611 189.415 251.641 187.187 249.514 185.861 247.822 184.803 245.907 182.508 245.259 180.758 244.407 178.453 242.492 177.415 238.299 176.984 235.118 176.658 230.77 175.488 228.639 174.387 221.851 170.877 217.382 169.21 211.974 168.167 209.079 167.609 201.971 165.252 196.179 162.928 190.387 160.604 175.495 155.534 163.084 151.661 150.673 147.787 135.78 142.927 129.988 140.858 124.197 138.791 116.75 136.53 113.441 135.836 103.702 133.793 90.4153 128.782 81.312 123.72 74.249 119.793 70.4324 118.803 58.5843 117.827 45.8645 116.781 43.9861 116.238 40.9847 112.749 38.1176 109.416 37.8557 108.18 39.1993 104.325 40.1817 101.507 42.6957 98.8963 45.8831 97.3838 50.5812 95.1546 51.4794 95.1546 57.0495 97.3826 60.3808 98.7161 65.21 99.8063 67.7819 99.8063 70.3533 99.8063 76.0095 101.839 80.3511 104.323 85.2427 107.122 90.6602 108.934 94.5937 109.088 98.0855 109.226 101.265 110.177 101.658 111.203 102.731 114.001 109.12 116.063 122.019 117.775 134.431 119.422 152.4 123.985 157.75 126.848 159.549 127.811 162.163 128.822 163.557 129.095 164.952 129.368 170.268 131.002 175.375 132.726 180.48 134.451 193.953 136.892 205.314 138.151 216.673 139.411 229.389 141.458 233.57 142.7 243.384 145.613 251.095 144.371 251.066 139.88 251.025 133.19 249.296 129.893 245.832 129.893 241.948 129.893 238.309 126.296 239.782 123.913 240.9 122.105 254.694 114.85 257.013 114.85 258.328 114.85 268.285 110.631 279.325 105.398 281.829 104.21 283.213 104.252 284.514 105.553 287.014 108.052 293.391 107.721 308.927 104.286 316.332 102.65 327.349 101.31 333.41 101.31 343.527 101.31 345.051 100.882 352.024 96.0851 360.882 89.9928 366.98 88.0001 380.521 86.7742 388.867 86.0187 391.366 86.397 396.998 89.2705 400.651 91.1341 404.907 94.2703 406.456 96.2402 412.689 104.164 413.193 104.372 423.817 103.417 430.628 102.806 436.774 103.259 442.891 104.822 455.63 108.079 493.875 121.162 494.852 122.597 496.808 125.467 494.504 151.131 491.158 163.74 486.857 179.952 484.753 185.768 468.044 227.672 460.953 245.461 454.735 262.045 454.229 264.528 453.587 267.677 452.3 269.186 449.976 269.523 448.142 269.787 445.944 271.31 445.089 272.907 444.235 274.503 442.966 275.811 442.27 275.811 441.575 275.811 437.031 277.616 432.169 279.824 422.127 284.385 423.684 283.884 409.792 287.035 399.907 289.278 366.812 291.713 365.337 290.305ZM409.045 280.866C414.423 279.538 423.025 276.504 428.162 274.125 433.298 271.744 438.037 269.771 438.693 269.736 439.348 269.702 442.057 267.814 444.713 265.539 450.503 260.581 459.643 241.333 469.833 212.63 478.489 188.255 481.168 181.066 482.78 177.886 484.475 174.545 490.279 147.315 490.279 142.705 490.279 137.871 487.291 137.853 482.777 142.658 480.439 145.147 477.708 146.367 474.617 146.302 472.063 146.248 460.831 147.291 449.663 148.621 423.248 151.763 418.844 152.06 380.466 153.286 354.925 154.101 344.167 153.815 329.317 151.924 318.976 150.607 305.323 149.578 298.979 149.636 285.077 149.763 279.644 148.694 270.323 143.998 266.419 142.031 261.767 140.422 259.98 140.422 257.12 140.422 256.85 141.004 257.709 145.311 258.245 148 259.334 150.423 260.131 150.695 264.404 152.151 267.815 156.828 268.549 162.235 269 165.544 270.409 170.731 271.682 173.763 274.932 181.502 273.865 183.295 266.008 183.295L259.366 183.295 259.672 191.568C259.842 196.119 260.669 203.565 261.514 208.117 267.822 242.155 269.912 250.379 274.959 261.067 280.415 272.624 280.44 272.649 286.445 272.736 289.754 272.782 294.225 273.742 296.38 274.865 302.29 277.95 313.363 280.014 330.069 281.14 338.344 281.699 350.529 282.701 357.148 283.365 373.229 284.979 397.02 283.832 409.047 280.862ZM418.864 262.852C415.002 258.992 416.995 257.025 424.967 256.83 429.035 256.732 434.225 256.145 436.5 255.526 443.48 253.631 441.723 258.92 434.244 262.315 426.393 265.879 422.042 266.03 418.864 262.852ZM241.679 167.902C242.018 166.887 241.031 166.55 239.158 167.039 237.464 167.483 236.472 168.48 236.953 169.257 238.028 170.996 240.925 170.165 241.679 167.902ZM230.03 164.609C230.03 163.845 228.276 161.137 226.134 158.592 221.638 153.249 216.49 152.384 216.49 156.972 216.49 158.626 216.321 160.428 216.114 160.973 215.906 161.519 218.445 162.801 221.755 163.824 229.514 166.22 230.03 166.269 230.03 164.609ZM208.968 158.777C208.968 156.426 205.305 153.963 201.81 153.963 197.683 153.963 198.632 156.529 203.48 158.486 207.685 160.183 208.968 160.25 208.968 158.777ZM185.051 145.845C180.448 141.154 176.09 138.46 170.07 136.581 165.401 135.124 158.535 132.616 154.812 131.007 146.202 127.286 125.328 122.928 110.156 121.682 103.69 121.151 96.7067 120.365 94.6383 119.934 91.7286 119.328 91.2784 119.559 92.6484 120.953 93.6225 121.944 100.731 124.66 108.444 126.987 124.981 131.977 132.343 134.392 152.555 141.456 160.829 144.348 169.967 147.275 172.864 147.959 175.759 148.643 180.159 149.877 182.641 150.702 191.052 153.494 191.557 152.475 185.051 145.845ZM212.331 146.247C210.374 144.384 193.924 142.946 193.924 144.638 193.924 145.492 194.675 146.44 195.59 146.746 198.635 147.76 213.457 147.319 212.331 146.247ZM432.205 142.698C456.522 140.225 472.177 137.963 473.392 136.75 475.103 135.039 469.527 134.439 463.084 135.643 459.312 136.348 435.626 137.126 410.445 137.374 385.263 137.621 359.585 137.976 353.382 138.162 342.322 138.494 311.904 136.643 302.987 135.095 300.505 134.664 294.074 133.654 288.696 132.851 273.907 130.643 264.168 128.076 261.233 125.611 258.023 122.917 257.063 123.694 256.662 129.32 256.378 133.28 256.725 133.589 261.007 133.175 263.644 132.92 267.879 134.007 270.784 135.686 277.373 139.493 290.598 142.144 302.575 142.06 313.24 141.985 322.918 142.768 336.083 144.771 348.577 146.671 405.15 145.451 432.204 142.698ZM485.539 135.764C491.121 133.817 492.241 129.343 486.803 130.708 484.891 131.187 482.354 131.726 481.161 131.907 479.97 132.087 478.074 132.808 476.951 133.508 475.234 134.581 475.234 134.987 476.951 136.076 479.579 137.74 479.901 137.728 485.537 135.764ZM366.139 129.935C366.554 129.266 364.359 128.251 361.264 127.68 354.444 126.421 349.509 122.108 347.329 115.501 345.718 110.623 345.605 110.573 334.954 110.082 329.043 109.808 320.445 110.394 315.851 111.383 311.257 112.372 303.095 113.935 297.718 114.857 265.642 120.353 263.885 122.673 290.197 124.79 295.575 125.223 302.265 126.292 305.065 127.166 314.898 130.236 364.56 132.488 366.141 129.935ZM372.183 129.893C372.695 129.066 372.056 128.389 370.767 128.389 369.477 128.389 368.422 129.066 368.422 129.893 368.422 130.721 369.06 131.398 369.838 131.398 370.615 131.398 371.672 130.721 372.183 129.893ZM468.459 127.762C474.251 126.673 477.973 125.367 476.733 124.861 467.906 121.265 427.498 113.388 417.734 113.361 412.791 113.348 411.739 114.038 408.719 119.288 406.837 122.557 403.636 125.988 401.606 126.913 398.571 128.297 398.303 128.864 400.092 130.103 403.015 132.126 454.668 130.358 468.462 127.762Z" fill="#FFFFFF" transform="matrix(1.00183 0 0 1 -36.1474 152.071)"/></g></g></g></g><text fill="#FFFFFF" font-family="Comic Sans MS,Comic Sans MS_MSFontService,sans-serif" font-weight="400" font-size="761" transform="matrix(0.166295 0 0 0.166391 496.21 386)">Pans</text><text fill="#FFFFFF" font-family="Comic Sans MS,Comic Sans MS_MSFontService,sans-serif" font-weight="400" font-size="761" transform="matrix(0.166295 0 0 0.166391 754.465 386)">@</text><text fill="#FFFFFF" font-family="Comic Sans MS,Comic Sans MS_MSFontService,sans-serif" font-weight="400" font-size="761" transform="matrix(0.166295 0 0 0.166391 872.368 386)">Home</text></g></svg>