<svg width="811" height="364" xmlns="http://www.w3.org/2000/svg" xmlns:xlink="http://www.w3.org/1999/xlink" xml:space="preserve" overflow="hidden"><defs><clipPath id="clip0"><rect x="-1016" y="178" width="811" height="364"/></clipPath></defs><g clip-path="url(#clip0)" transform="translate(1016 -178)"><path d="M638.358 507.254C637.71 506.636 621.213 505.388 601.695 504.479 549.323 502.043 521.537 498.5 493.923 490.734 479.796 486.761 479.294 486.289 471.95 470.027 467.817 460.875 462.774 445.91 460.744 436.772 458.714 427.634 455.199 411.879 452.932 401.759 445.358 367.951 441.562 346.643 441.457 337.336 441.384 330.965 439.689 327.072 435.975 324.753 433.017 322.905 429.672 318.894 428.541 315.837 427.051 311.809 423.706 309.995 416.378 309.243 410.819 308.673 403.223 306.63 399.498 304.704 387.64 298.573 379.831 295.659 370.382 293.838 365.322 292.864 352.902 288.744 342.782 284.683 332.663 280.623 306.64 271.764 284.955 264.996 263.271 258.228 237.248 249.735 227.128 246.121 217.009 242.508 203.997 238.558 198.215 237.345 181.198 233.775 157.982 225.02 142.076 216.175 129.735 209.313 123.066 207.584 102.364 205.879 80.1388 204.05 76.8567 203.102 71.6124 197.005 66.6027 191.182 66.1451 189.022 68.4929 182.287 70.2094 177.363 74.602 172.801 80.1712 170.158 88.3803 166.263 89.9497 166.263 99.6822 170.156 105.503 172.486 113.941 174.391 118.435 174.391 122.928 174.391 132.811 177.943 140.397 182.283 148.944 187.173 158.41 190.34 165.283 190.609 171.384 190.849 176.939 192.512 177.626 194.305 179.502 199.194 190.664 202.797 213.203 205.787 234.89 208.665 266.288 216.638 275.635 221.64 278.779 223.323 283.346 225.09 285.782 225.567 288.219 226.043 297.51 228.899 306.431 231.911 315.352 234.925 338.892 239.19 358.743 241.391 378.593 243.592 400.811 247.169 408.117 249.338 425.263 254.429 438.737 252.258 438.688 244.411 438.613 232.722 435.593 226.961 429.539 226.961 422.754 226.961 416.396 220.676 418.97 216.512 420.922 213.353 445.025 200.676 449.079 200.676 451.375 200.676 468.773 193.305 488.061 184.161 492.437 182.085 494.856 182.159 497.13 184.432 501.496 188.799 512.642 188.221 539.788 182.219 552.726 179.36 571.975 177.019 582.565 177.019 600.241 177.019 602.906 176.271 615.091 167.889 630.566 157.244 641.222 153.762 664.882 151.62 679.466 150.3 683.831 150.961 693.674 155.982 700.055 159.238 707.491 164.718 710.199 168.16 721.089 182.005 721.969 182.368 740.535 180.7 752.432 179.632 763.172 180.423 773.86 183.155 796.118 188.845 862.944 211.705 864.652 214.213 868.071 219.227 864.045 264.07 858.198 286.102 850.68 314.429 847.007 324.591 817.812 397.81 805.419 428.892 794.556 457.871 793.671 462.208 792.548 467.711 790.303 470.347 786.24 470.934 783.037 471.397 779.195 474.057 777.701 476.848 776.209 479.638 773.992 481.922 772.777 481.922 771.562 481.922 763.62 485.078 755.127 488.935 737.581 496.904 740.301 496.028 716.029 501.535 698.755 505.455 640.929 509.707 638.351 507.247ZM714.722 490.755C724.119 488.435 739.151 483.135 748.126 478.976 757.101 474.817 765.381 471.367 766.526 471.308 767.67 471.249 772.404 467.949 777.045 463.975 787.162 455.312 803.131 421.679 820.937 371.527 836.059 328.937 840.74 316.376 843.558 310.82 846.52 304.981 856.662 257.403 856.662 249.347 856.662 240.902 851.44 240.87 843.553 249.266 839.467 253.615 834.696 255.746 829.295 255.632 824.831 255.539 805.209 257.361 785.693 259.684 739.538 265.175 731.845 265.693 664.785 267.835 620.158 269.26 601.362 268.76 575.415 265.456 557.344 263.155 533.489 261.356 522.404 261.458 498.112 261.68 488.62 259.813 472.333 251.606 465.514 248.17 457.383 245.358 454.262 245.358 449.265 245.358 448.792 246.376 450.292 253.901 451.228 258.6 453.134 262.833 454.527 263.308 461.991 265.853 467.952 274.025 469.235 283.472 470.022 289.254 472.485 298.318 474.709 303.613 480.387 317.137 478.523 320.271 464.796 320.271L453.189 320.271 453.725 334.727C454.019 342.678 455.466 355.689 456.941 363.641 467.965 423.114 471.615 437.486 480.433 456.161 489.968 476.354 490.011 476.398 500.502 476.549 506.285 476.632 514.098 478.307 517.864 480.272 528.191 485.661 547.539 489.265 576.729 491.235 591.186 492.211 612.477 493.96 624.042 495.121 652.142 497.941 693.712 495.938 714.726 490.75ZM731.878 459.281C725.131 452.534 728.614 449.097 742.543 448.758 749.65 448.585 758.718 447.56 762.693 446.48 774.891 443.167 771.819 452.411 758.75 458.342 745.033 464.569 737.432 464.834 731.878 459.281ZM422.284 293.375C422.876 291.6 421.153 291.01 417.879 291.867 414.92 292.641 413.187 294.384 414.027 295.742 415.904 298.78 420.966 297.329 422.284 293.375ZM401.928 287.621C401.928 286.285 398.865 281.554 395.123 277.107 387.268 267.771 378.271 266.26 378.271 274.276 378.271 277.167 377.975 280.314 377.614 281.267 377.252 282.221 381.688 284.462 387.471 286.248 401.027 290.435 401.928 290.521 401.928 287.621ZM365.129 277.43C365.129 273.322 358.729 269.019 352.62 269.019 345.411 269.019 347.068 273.503 355.541 276.922 362.886 279.886 365.129 280.004 365.129 277.43ZM323.339 254.834C315.295 246.638 307.682 241.931 297.163 238.648 289.005 236.102 277.007 231.719 270.502 228.908 255.457 222.406 218.984 214.791 192.475 212.614 181.177 211.687 168.975 210.313 165.361 209.56 160.277 208.501 159.49 208.904 161.884 211.34 163.586 213.073 176.006 217.817 189.484 221.884 218.378 230.602 231.243 234.823 266.558 247.166 281.015 252.218 296.983 257.332 302.043 258.528 307.103 259.723 314.791 261.88 319.128 263.32 333.824 268.2 334.707 266.419 323.338 254.834ZM371.005 255.537C367.585 252.281 338.844 249.769 338.844 252.726 338.844 254.218 340.154 255.874 341.754 256.408 347.072 258.181 372.973 257.409 371.005 255.537ZM755.189 249.336C797.677 245.014 825.033 241.062 827.154 238.942 830.145 235.952 820.401 234.905 809.143 237.008 802.554 238.24 761.166 239.6 717.166 240.033 673.166 240.465 628.302 241.085 617.463 241.41 598.139 241.99 544.987 238.755 529.407 236.05 525.07 235.298 513.834 233.533 504.437 232.13 478.595 228.272 461.578 223.787 456.451 219.48 450.843 214.772 449.166 216.13 448.463 225.96 447.968 232.879 448.575 233.419 456.055 232.696 460.665 232.25 468.062 234.15 473.14 237.083 484.653 243.735 507.759 248.368 528.688 248.221 547.324 248.09 564.232 249.458 587.235 252.957 609.066 256.277 707.917 254.145 755.186 249.336ZM848.378 237.219C858.134 233.818 860.089 226 850.587 228.385 847.249 229.223 842.814 230.165 840.73 230.48 838.647 230.795 835.337 232.054 833.375 233.278 830.373 235.153 830.373 235.862 833.375 237.765 837.966 240.673 838.528 240.652 848.377 237.219ZM639.754 227.035C640.477 225.866 636.642 224.092 631.234 223.095 619.319 220.895 610.694 213.358 606.885 201.815 604.071 193.29 603.875 193.204 585.263 192.345 574.933 191.867 559.912 192.891 551.884 194.619 543.856 196.347 529.598 199.078 520.201 200.689 464.156 210.292 461.086 214.346 507.059 218.045 516.455 218.801 528.147 220.669 533.04 222.197 550.218 227.561 636.995 231.495 639.755 227.035ZM650.313 226.962C651.207 225.516 650.093 224.333 647.84 224.333 645.586 224.333 643.741 225.516 643.741 226.962 643.741 228.408 644.855 229.59 646.215 229.59 647.575 229.59 649.419 228.408 650.313 226.962ZM818.535 223.238C828.655 221.334 835.16 219.053 832.992 218.169 817.57 211.885 746.964 198.122 729.905 198.075 721.267 198.052 719.43 199.258 714.151 208.432 710.864 214.144 705.271 220.138 701.724 221.755 696.42 224.172 695.951 225.163 699.079 227.328 704.186 230.863 794.44 227.773 818.54 223.238Z" transform="matrix(1.00294 0 0 1 -1079.23 27.9753)"/></g></svg>