<svg width="720" height="720" xmlns="http://www.w3.org/2000/svg" xmlns:xlink="http://www.w3.org/1999/xlink" xml:space="preserve" overflow="hidden"><defs><clipPath id="clip0"><rect x="280" y="0" width="720" height="720"/></clipPath></defs><g clip-path="url(#clip0)" transform="translate(-280 0)"><path d="M999.999 291.329 999.999 428.671C999.999 439.01 991.622 447.4 981.27 447.4L727.401 447.4 727.401 701.269C727.401 711.623 719.011 719.998 708.672 719.998L571.33 719.998C560.997 719.998 552.601 711.621 552.601 701.269L552.601 447.4 298.73 447.4C288.382 447.4 280.001 439.01 280.001 428.671L280.001 291.329C280.001 280.988 288.382 272.6 298.73 272.6L552.601 272.6 552.601 18.7287C552.601 8.37725 560.995 5.11591e-14 571.33 5.11591e-14L708.672 5.11591e-14C719.011 5.11591e-14 727.401 8.37725 727.401 18.7287L727.401 272.6 981.27 272.6C991.624 272.6 999.999 280.988 999.999 291.329Z" fill="#FFFFFF"/></g></svg>