<svg width="720" height="720" xmlns="http://www.w3.org/2000/svg" xmlns:xlink="http://www.w3.org/1999/xlink" xml:space="preserve" overflow="hidden"><defs><clipPath id="clip0"><rect x="280" y="0" width="720" height="720"/></clipPath></defs><g clip-path="url(#clip0)" transform="translate(-280 0)"><path d="M911.683 55.3398C871.347 18.1056 828.833 0 781.71 0 726.139 0 675.419 25.4534 626.36 50.0819 582.229 72.2354 540.551 93.1569 500.611 93.1569 470.45 93.1569 443.379 81.1452 415.418 55.3398 405.793 46.452 391.812 44.109 379.801 49.3669 368.548 54.2948 361.123 65.0416 360.221 77.1523 358.604 81.0462 357.691 85.3141 357.691 89.791L357.691 687.001C357.691 705.227 372.464 720 390.691 720 408.917 720 423.69 705.227 423.69 687.001L423.69 492.866C448.131 504.966 473.585 511.126 500.6 511.126 500.6 511.126 500.611 511.126 500.622 511.126 556.182 511.115 606.902 485.672 655.961 461.044 700.103 438.89 741.792 417.98 781.732 417.98 811.893 417.98 838.964 429.991 866.914 455.797 876.539 464.707 890.519 467.05 902.531 461.781 914.543 456.523 922.298 444.654 922.298 431.553L922.298 79.5832C922.298 70.3654 918.448 61.5876 911.683 55.3398ZM856.299 368.866C832.584 357.558 807.867 351.992 781.732 351.992 726.161 351.992 675.43 377.446 626.36 402.074 582.229 424.217 540.551 445.127 500.622 445.138L500.611 445.138C474.289 445.138 450.32 435.975 426.055 416.484L426.055 142.271C449.77 153.59 474.487 159.155 500.622 159.155 556.193 159.155 606.924 133.702 655.972 109.074 700.103 86.9201 741.792 65.9985 781.721 65.9985 808.065 65.9985 832.034 75.1613 856.299 94.6529L856.299 368.866Z" fill="#FFFFFF"/></g></svg>