<svg width="642" height="720" xmlns="http://www.w3.org/2000/svg" xmlns:xlink="http://www.w3.org/1999/xlink" xml:space="preserve" overflow="hidden"><defs><clipPath id="clip0"><rect x="319" y="0" width="642" height="720"/></clipPath></defs><g clip-path="url(#clip0)" transform="translate(-319 0)"><path d="M609.583 0 296.529 0C278.413 0 261.068 7.2205 248.274 20.0521L62.1811 207.023C49.4764 219.784 42.3521 237.049 42.3521 255.048L42.3521 651.925C42.3521 689.52 72.8435 720 110.439 720L609.583 720C647.177 720 677.648 689.52 677.648 651.925L677.648 68.075C677.648 30.4827 647.177 0 609.583 0ZM629.645 651.925C629.645 663 620.643 671.997 609.582 671.997L110.439 671.997C99.3522 671.997 90.3488 663 90.3488 651.925L90.3488 268.583 281.79 268.583C299.412 268.583 313.757 254.239 313.757 236.6L313.757 48.0011 609.583 48.0011C620.643 48.0011 629.647 56.9986 629.647 68.075L629.647 651.925 629.645 651.925Z" fill="#FFFFFF" transform="matrix(1.00119 0 0 1 280.196 0)"/><path d="M494.599 370.945 225.443 370.945C205.571 370.945 189.443 387.06 189.443 406.946 189.443 426.831 205.571 442.946 225.443 442.946L494.599 442.946C514.477 442.946 530.599 426.831 530.599 406.946 530.599 387.06 514.476 370.945 494.599 370.945Z" fill="#FFFFFF" transform="matrix(1.00119 0 0 1 280.196 0)"/><path d="M494.599 250.945 393.445 250.945C373.568 250.945 357.446 267.059 357.446 286.944 357.446 306.831 373.568 322.944 393.445 322.944L494.599 322.944C514.477 322.944 530.599 306.831 530.599 286.944 530.598 267.059 514.476 250.945 494.599 250.945Z" fill="#FFFFFF" transform="matrix(1.00119 0 0 1 280.196 0)"/><path d="M494.599 130.947 393.445 130.947C373.568 130.947 357.446 147.056 357.446 166.948 357.446 186.833 373.568 202.947 393.445 202.947L494.599 202.947C514.477 202.947 530.599 186.832 530.599 166.948 530.598 147.057 514.476 130.947 494.599 130.947Z" fill="#FFFFFF" transform="matrix(1.00119 0 0 1 280.196 0)"/><path d="M494.599 506.471 225.443 506.471C205.571 506.471 189.443 522.584 189.443 542.47 189.443 562.356 205.571 578.471 225.443 578.471L494.599 578.471C514.477 578.471 530.599 562.356 530.599 542.47 530.599 522.584 514.476 506.471 494.599 506.471Z" fill="#FFFFFF" transform="matrix(1.00119 0 0 1 280.196 0)"/></g></svg>