<svg width="720" height="720" xmlns="http://www.w3.org/2000/svg" xmlns:xlink="http://www.w3.org/1999/xlink" xml:space="preserve" overflow="hidden"><defs><clipPath id="clip0"><rect x="280" y="0" width="720" height="720"/></clipPath></defs><g clip-path="url(#clip0)" transform="translate(-280 0)"><path d="M205.714 321.429 205.714 90C205.714 86.2501 204.509 83.1696 202.098 80.7589 199.688 78.3482 196.607 77.1429 192.857 77.1429L167.143 77.1429C163.393 77.1429 160.312 78.3482 157.902 80.7589 155.491 83.1696 154.286 86.2501 154.286 90L154.286 321.429C154.286 325.178 155.491 328.259 157.902 330.67 160.312 333.08 163.393 334.286 167.143 334.286L192.857 334.286C196.607 334.286 199.688 333.08 202.098 330.67 204.509 328.259 205.714 325.178 205.714 321.429ZM308.571 321.429 308.571 90C308.571 86.2501 307.366 83.1696 304.955 80.7589 302.545 78.3482 299.464 77.1429 295.714 77.1429L270 77.1429C266.25 77.1429 263.17 78.3482 260.759 80.7589 258.348 83.1696 257.143 86.2501 257.143 90L257.143 321.429C257.143 325.178 258.348 328.259 260.759 330.67 263.17 333.08 266.25 334.286 270 334.286L295.714 334.286C299.464 334.286 302.545 333.08 304.955 330.67 307.366 328.259 308.571 325.178 308.571 321.429ZM411.429 321.429 411.429 90C411.429 86.2501 410.223 83.1696 407.812 80.7589 405.402 78.3482 402.32 77.1429 398.571 77.1429L372.857 77.1429C369.107 77.1429 366.027 78.3482 363.616 80.7589 361.205 83.1696 360 86.2501 360 90L360 321.429C360 325.178 361.205 328.259 363.616 330.67 366.027 333.08 369.107 334.286 372.857 334.286L398.571 334.286C402.32 334.286 405.402 333.08 407.812 330.67 410.223 328.259 411.429 325.178 411.429 321.429ZM462.857 30.5357 462.857 411.429 102.857 411.429 102.857 30.5357C102.857 24.6428 103.795 19.2187 105.67 14.2634 107.545 9.30805 109.487 5.69198 111.496 3.41518 113.504 1.13839 114.911 0 115.714 0L450 0C450.804 0 452.21 1.13839 454.219 3.41518 456.228 5.69198 458.168 9.30805 460.045 14.2634 461.921 19.2187 462.857 24.6428 462.857 30.5357ZM192.857 462.857 372.857 462.857 353.571 509.866C351.696 512.277 349.42 513.751 346.741 514.286L219.375 514.286C216.696 513.751 214.42 512.277 212.545 509.866ZM565.714 450 565.714 424.286C565.714 420.537 564.509 417.455 562.098 415.045 559.688 412.634 556.606 411.429 552.857 411.429L514.286 411.429 514.286 30.5357C514.286 8.30359 507.99-10.9152 495.402-27.1205 482.814-43.3258 467.679-51.4286 450-51.4286L115.714-51.4286C98.0357-51.4286 82.9016-43.5938 70.3125-27.9241 57.7234-12.2545 51.4286 6.69644 51.4286 28.9286L51.4286 411.429 12.8571 411.429C9.10716 411.429 6.02679 412.634 3.61607 415.045 1.20536 417.455 0 420.537 0 424.286L0 450C0 453.749 1.20536 456.83 3.61607 459.241 6.02679 461.652 9.10716 462.857 12.8571 462.857L137.009 462.857 165.134 529.955C169.152 539.867 176.384 548.305 186.83 555.268 197.277 562.231 207.857 565.714 218.571 565.714L347.143 565.714C357.857 565.714 368.438 562.231 378.884 555.268 389.33 548.305 396.562 539.867 400.58 529.955L428.705 462.857 552.857 462.857C556.606 462.857 559.688 461.652 562.098 459.241 564.509 456.83 565.714 453.749 565.714 450Z" fill="#CC0000" transform="matrix(1 0 0 -1 359.322 607.118)"/></g></svg>