<svg width="678" height="573" xmlns="http://www.w3.org/2000/svg" xmlns:xlink="http://www.w3.org/1999/xlink" xml:space="preserve" overflow="hidden"><defs><clipPath id="clip0"><rect x="300" y="62" width="678" height="573"/></clipPath></defs><g clip-path="url(#clip0)" transform="translate(-300 -62)"><path d="M282.784 64.269C282.784 65.8757 280.775 73.5077 276.758 87.1649 272.742 100.822 268.055 116.287 262.7 133.559 257.344 150.831 254.666 159.601 254.666 159.869 263.235 164.154 270.064 170.447 275.152 178.748 280.24 187.05 282.784 196.021 282.784 205.661 282.784 219.854 277.763 231.971 267.721 242.013 257.679 252.055 245.561 257.076 231.368 257.076 217.176 257.076 205.058 252.055 195.016 242.013 184.974 231.971 179.953 219.854 179.953 205.661 179.953 196.021 182.497 187.117 187.585 178.949 192.673 170.782 199.502 164.422 208.071 159.869 208.071 159.334 205.393 150.497 200.037 133.358 194.682 116.22 189.995 100.822 185.978 87.1649 181.962 73.5077 179.953 65.8757 179.953 64.269 179.953 60.7878 181.225 57.7752 183.769 55.2312 186.313 52.6872 189.326 51.4152 192.807 51.4152L269.93 51.4152C273.411 51.4152 276.424 52.6872 278.968 55.2312 281.512 57.7752 282.784 60.7878 282.784 64.269ZM668.398 385.614 668.398 282.784C668.398 275.821 665.854 269.796 660.766 264.708 655.678 259.62 649.653 257.076 642.69 257.076L616.983 257.076C610.02 257.076 603.995 259.62 598.907 264.708 593.819 269.796 591.275 275.821 591.275 282.784L591.275 385.614C591.275 414 581.233 438.234 561.149 458.318 541.065 478.403 516.83 488.445 488.445 488.445 460.059 488.445 435.824 478.403 415.74 458.318 395.656 438.234 385.614 414 385.614 385.614L385.614 308.491 424.176 308.491C434.887 308.491 443.992 304.742 451.49 297.244 458.988 289.746 462.737 280.641 462.737 269.93L462.737 38.5614C462.737 27.8499 458.988 18.7451 451.49 11.2471 443.992 3.74903 434.887 0 424.176 0L38.5614 0C27.8499 0 18.7451 3.74903 11.2471 11.2471 3.74903 18.7451 0 27.8499 0 38.5614L0 269.93C0 280.641 3.74903 289.746 11.2471 297.244 18.7451 304.742 27.8499 308.491 38.5614 308.491L308.491 308.491 308.491 385.614C308.491 435.155 326.098 477.532 361.312 512.746 396.526 547.96 438.904 565.567 488.445 565.567 537.985 565.567 580.363 547.96 615.577 512.746 650.791 477.532 668.398 435.155 668.398 385.614Z" fill="#244CC3" transform="matrix(1.00085 0 0 -1 304.3 631.861)"/></g></svg>